<?xml version="1.0" encoding="UTF-8" standalone="no"?>
<!DOCTYPE svg PUBLIC "-//W3C//DTD SVG 1.1//EN" "http://www.w3.org/Graphics/SVG/1.1/DTD/svg11.dtd">
<svg width="100%" height="100%" viewBox="0 0 240 178" version="1.1" xmlns="http://www.w3.org/2000/svg" xmlns:xlink="http://www.w3.org/1999/xlink" xml:space="preserve" xmlns:serif="http://www.serif.com/" style="fill-rule:evenodd;clip-rule:evenodd;stroke-linejoin:round;stroke-miterlimit:2;">
    <g transform="matrix(1,0,0,1,-9.9476e-14,-1.97183)">
        <path d="M192.913,142.969L199.647,148.686C202.761,151.33 203.142,156.005 200.498,159.119C197.854,162.234 193.179,162.615 190.065,159.971L40.353,32.851C37.239,30.207 36.858,25.532 39.502,22.418C42.146,19.304 46.821,18.923 49.935,21.567L56.828,27.42C59.015,26.492 61.421,25.979 63.945,25.979L175.419,25.979C185.499,25.979 193.682,34.162 193.682,44.242L193.682,137.716C193.682,139.542 193.414,141.305 192.913,142.969ZM45.682,55.867L45.682,137.716C45.682,147.796 53.865,155.979 63.945,155.979L163.586,155.979L138.344,134.546L58.237,133.55C52.351,127.664 52.351,118.105 58.237,112.219L82.947,87.509L45.682,55.867ZM107.146,70.144L182.669,134.271C186.649,129.793 186.493,122.923 182.202,118.632L152.789,89.219C148.337,84.767 141.107,84.767 136.655,89.219L134.283,91.591L117.239,74.548C114.442,71.75 110.814,70.282 107.146,70.144ZM165.588,38C174.192,38 181.177,44.985 181.177,53.588C181.177,62.192 174.192,69.177 165.588,69.177C156.985,69.177 150,62.192 150,53.588C150,44.985 156.985,38 165.588,38Z" style="fill:rgb(24,49,83);"/>
    </g>
</svg>
